<svg id="Capa_1" enable-background="new 0 0 512 512" height="512" viewBox="0 0 512 512" width="512" xmlns="http://www.w3.org/2000/svg"><g><g><g><path d="m291.783 355.24c-13.22-3.277-21.28-16.65-18.004-29.87l13.503-54.476h-102.377v-49.322h133.503c5.549 0 11.019 1.695 15.409 5.088 7.936 6.135 11.236 16.166 8.921 25.506l-21.086 85.07c-3.276 13.221-16.649 21.281-29.869 18.004z" fill="#21386b"/><g><path d="m158.608 350.244c-42.596 0-77.132 34.528-77.132 77.124s34.536 77.132 77.132 77.132 77.124-34.536 77.124-77.132-34.528-77.124-77.124-77.124zm0 129.812c-29.099 0-52.688-23.589-52.688-52.688s23.589-52.688 52.688-52.688 52.688 23.589 52.688 52.688-23.589 52.688-52.688 52.688z" fill="#26457d"/><g fill="#21386b"><path d="m93.51 427.368c0-40.571 31.331-73.822 71.115-76.892-1.986-.153-3.992-.232-6.017-.232-42.596 0-77.132 34.528-77.132 77.124s34.536 77.132 77.132 77.132c2.025 0 4.031-.079 6.017-.232-39.784-3.071-71.115-36.329-71.115-76.9z"/><path d="m164.625 479.704c1.976.225 3.981.352 6.017.352 29.099 0 52.688-23.589 52.688-52.688s-23.589-52.688-52.688-52.688c-2.036 0-4.041.127-6.017.352 26.264 2.988 46.671 25.273 46.671 52.336s-20.407 49.348-46.671 52.336z"/></g><path d="m413.122 350.244c-42.596 0-77.132 34.528-77.132 77.124s34.536 77.132 77.132 77.132 77.124-34.536 77.124-77.132-34.528-77.124-77.124-77.124zm0 129.812c-29.099 0-52.688-23.589-52.688-52.688s23.589-52.688 52.688-52.688 52.688 23.589 52.688 52.688-23.589 52.688-52.688 52.688z" fill="#26457d"/><g fill="#21386b"><path d="m348.024 427.368c0-40.571 31.331-73.822 71.115-76.892-1.986-.153-3.992-.232-6.017-.232-42.596 0-77.132 34.528-77.132 77.124s34.536 77.132 77.132 77.132c2.025 0 4.031-.079 6.017-.232-39.784-3.071-71.115-36.329-71.115-76.9z"/><path d="m419.139 479.704c1.976.225 3.981.352 6.017.352 29.099 0 52.688-23.589 52.688-52.688s-23.589-52.688-52.688-52.688c-2.036 0-4.041.127-6.017.352 26.264 2.988 46.671 25.273 46.671 52.336s-20.407 49.348-46.671 52.336z"/></g><g><path d="m387.989 273.684c-4.347 0-8.328-2.893-9.52-7.289l-19.367-71.413c-1.426-5.261 1.682-10.682 6.943-12.109 5.264-1.427 10.683 1.682 12.109 6.943l4.316 15.919 15.05 55.494c1.426 5.261-1.682 10.682-6.943 12.109-.864.234-1.733.346-2.588.346z" fill="#f9f6f6"/><path d="m394.083 271.579c-1.012.79-2.188 1.398-3.504 1.752-.864.238-1.736.354-2.583.354-4.351 0-8.332-2.895-9.524-7.295l-19.37-71.408c-1.423-5.264 1.686-10.684 6.95-12.115 1.653-.444 3.331-.444 4.886-.074-3.027 2.377-4.516 6.415-3.446 10.363l19.37 71.417c.978 3.601 3.832 6.192 7.221 7.006z" fill="#d0cee7"/></g><g><path d="m274.948 415.861-52.729-66.9-17.165-21.779-27.767-35.219c-4.219-5.354-3.298-13.11 2.056-17.33 5.346-4.219 13.102-3.298 17.321 2.056l29.667 37.637 17.428 22.116 50.566 64.145c4.22 5.347-16.943 18.359-19.377 15.274z" fill="#9dc6fb"/><path d="m288.075 410.703c-5.247 3.89-11.835 6.794-13.127 5.157l-97.661-123.898c-4.219-5.354-3.306-13.11 2.048-17.33 1.941-1.53 4.203-2.385 6.498-2.591-3.257 4.359-3.323 10.52.206 14.994l97.661 123.899c.584.74 2.245.559 4.375-.231z" fill="#80b4fb"/><path d="m226.331 314.326-10.199 1.694c-4.047.674-7.493 3.306-9.195 7.04l-1.883 4.121 17.165 21.779 4.425-9.672 17.116-2.846z" fill="#80b4fb"/><path d="m158.604 439.707c-3.835 0-7.497-1.791-9.848-4.909-2.729-3.619-3.254-8.442-1.368-12.563l50.525-110.392c1.705-3.726 5.15-6.362 9.192-7.035l166.54-27.723c6.722-1.119 19.059 37.177 14.322 42.074l-94.46 97.642c-1.879 1.942-4.343 3.213-7.014 3.619l-126.034 19.146c-.621.095-1.24.141-1.855.141zm59.017-111.636-38.296 83.672 99.343-15.091 90.799-93.858z" fill="#9dc6fb"/><g fill="#80b4fb"><path d="m292.761 396.652 90.799-93.857h-14.093l-90.799 93.857z"/><path d="m162.848 434.798c-2.729-3.619-3.254-8.442-1.368-12.563l52.376-113.188c1.456-3.182 4.187-5.558 7.47-6.606l-14.222 2.367c-4.043.673-7.487 3.309-9.192 7.035l-50.525 110.392c-1.886 4.121-1.361 8.944 1.368 12.563 2.352 3.118 6.013 4.909 9.848 4.909.615 0 1.235-.046 1.855-.14l6.962-1.058c-1.77-.838-3.35-2.091-4.572-3.711z"/></g><path d="m413.112 439.71c-5.433 0-10.41-3.616-11.9-9.112l-42.346-156.173c-1.697-6.26 1.743-12.766 7.872-14.887l21.334-7.385c6.438-2.228 13.465 1.184 15.694 7.623s-1.184 13.465-7.623 15.694l-10.447 3.616 39.331 145.054c1.783 6.576-2.103 13.353-8.679 15.136-1.081.294-2.168.434-3.236.434z" fill="#9dc6fb"/><path d="m421.679 436.256c-1.448 1.398-3.257 2.459-5.338 3.018-1.077.296-2.163.436-3.232.436-5.437 0-10.413-3.619-11.901-9.113l-42.341-156.172c-1.703-6.259 1.744-12.765 7.871-14.887l7.756-2.681c-5.058 2.624-7.723 8.488-6.193 14.155l42.349 156.172c1.406 5.198 5.937 8.71 11.029 9.072z" fill="#80b4fb"/></g><path d="m205.238 249.893h-48c-13.58 0-25.06 10.648-25.432 24.223-.386 14.085 10.916 25.624 24.914 25.624 7.313 0 13.89-3.149 18.449-8.165 9.945-10.942 24.344-16.758 39.131-16.758l-21.012-3.652c-.001-13.766 25.715-21.272 11.95-21.272z" fill="#e7a561"/><path d="m170.174 295.788c-3.882 2.5-8.505 3.948-13.456 3.948-13.999 0-25.299-11.539-24.913-25.62.378-13.579 11.852-24.222 25.431-24.222h26.903c-13.579 0-25.061 10.643-25.431 24.222-.246 9.096 4.385 17.14 11.466 21.672z" fill="#e4936b"/></g><g><path d="m379.05 171.162c1.319 7.012-.778 14.541-6.268 19.895l-20.579 20.098-32.47-4.981 1.623-26.605 20.579-20.098c8.723-8.514 22.699-8.348 31.222.372 3.16 3.234 5.116 7.188 5.893 11.319z" fill="#ffddce"/><path d="m241.826 433.593-99.179-207.966 44.519-21.231 99.179 207.966c5.863 12.294.65 27.012-11.644 32.875-12.293 5.863-27.012.649-32.875-11.644z" fill="#26457d"/><path d="m274.158 445.494c-3.709 1.659-7.62 2.329-11.421 2.116-8.706-.489-16.887-5.591-20.91-14.017l-99.174-207.966 44.515-21.224 4.676 9.816-26.587 12.676 99.174 207.966c2.19 4.609 5.633 8.22 9.727 10.633z" fill="#21386b"/><path d="m302.085 106.491-86.601 145.607-72.84-26.473c0-71.774 58.184-129.958 129.958-129.958h21.61" fill="#f6e266"/><path d="m294.744 96.399c-33.944 3.433-64.415 18.644-87.251 41.48-24.789 24.79-40.582 58.565-42.092 96.021l-22.757-8.276c0-35.887 14.54-68.371 38.057-91.887 23.517-23.517 56.01-38.067 91.897-38.067h21.613z" fill="#ffd064"/><g><g><path d="m297.188 140.253c-24.065 0-43.574-19.509-43.574-43.574v-34.603c0-24.065 19.509-43.574 43.574-43.574 24.065 0 43.574 19.509 43.574 43.574v34.603c0 24.065-19.509 43.574-43.574 43.574z" fill="#ffddce"/><path d="m310.026 138.331c-4.055 1.244-8.367 1.92-12.84 1.92-24.06 0-43.572-19.501-43.572-43.572v-34.604c0-24.06 19.512-43.572 43.572-43.572 4.473 0 8.785.676 12.84 1.931-17.796 5.471-30.732 22.054-30.732 41.641v34.604c0 19.598 12.936 36.171 30.732 41.652z" fill="#ffcbbe"/></g><path d="m346.38 62.076h-58.449v6.143c0 14.467-11.728 26.196-26.196 26.196-14.467 0-26.196-11.728-26.196-26.196v-6.143c0-30.14 24.434-54.574 54.574-54.574h1.692c30.141 0 54.575 24.434 54.575 54.574z" fill="#dd636e"/><path d="m262.747 62.076v6.14c0 7.231 2.929 13.785 7.675 18.522 1.475 1.474 3.121 2.777 4.918 3.878-3.969 2.404-8.625 3.797-13.604 3.797-7.231 0-13.776-2.929-18.522-7.676-4.747-4.736-7.675-11.291-7.675-18.522v-6.14c0-30.146 24.44-54.576 54.576-54.576h1.697c4.393 0 8.665.515 12.755 1.505-23.995 5.737-41.82 27.319-41.82 53.072z" fill="#da4a54"/></g><path d="m352.204 211.154-47.178 46.072c-3.151 3.073-7.109 5.102-11.344 5.898-3.279.626-6.726.501-10.112-.452-4.77-1.331-8.897-4.356-11.87-8.316l-66.952-89.067 35.291-26.531 52.116 69.331 29.202-28.521z" fill="#f6e266"/><path d="m310.93 251.456-5.909 5.771c-3.147 3.068-7.102 5.1-11.344 5.899-3.275.621-6.728.503-10.111-.454-4.764-1.332-8.898-4.36-11.867-8.316l-57.674-76.721 13.031-9.805 57.329 76.248c2.969 3.956 7.092 6.984 11.867 8.316 3.383.957 6.836 1.075 10.111.454 1.569-.297 3.098-.761 4.567-1.392z" fill="#ffd064"/></g><circle cx="369.55" cy="193.748" fill="#26457d" r="18.807"/></g><g fill="#f6e266"><path d="m82.36 253.916v2.5c.001 8.818-6.826 16.132-15.623 16.736l-27.061 1.86c-9.693.666-17.922-7.016-17.924-16.732l-.001-6.213c-.001-9.716 8.226-17.4 17.919-16.736l27.061 1.853c8.799.602 15.628 7.914 15.629 16.732z"/><path d="m106.171 184.61v2.5c.001 8.818-6.826 16.132-15.623 16.736l-27.061 1.86c-9.693.666-17.922-7.016-17.924-16.732l-.001-6.213c-.001-9.716 8.226-17.4 17.919-16.736l27.061 1.853c8.799.603 15.628 7.914 15.629 16.732z"/><path d="m106.171 323.222v2.5c.001 8.818-6.826 16.132-15.623 16.736l-27.061 1.86c-9.693.666-17.922-7.016-17.924-16.732l-.001-6.213c-.001-9.716 8.226-17.4 17.919-16.736l27.061 1.853c8.799.602 15.628 7.914 15.629 16.732z"/></g></g><g><path d="m413.116 342.744c-.788 0-1.582.039-2.373.061l-15.977-58.922 3.829-1.325c10.336-3.578 15.835-14.898 12.258-25.235-1.678-4.848-5.098-8.767-9.639-11.114l-10.132-37.375c3.004-4.275 4.775-9.476 4.775-15.086 0-7.86-3.469-14.92-8.951-19.745-.306-7.296-3.255-14.143-8.387-19.397-11.387-11.662-30.148-11.89-41.828-.501l-43.67 42.649-20.044-26.66 13.909-23.384c3.328.684 6.773 1.044 10.301 1.044 28.161 0 51.071-22.911 51.071-51.071v-27.35c3.232-.835 5.622-3.761 5.622-7.253 0-34.231-27.845-62.08-62.07-62.08h-1.699c-22.86 0-43.802 12.508-54.653 32.642-1.965 3.646-.602 8.195 3.044 10.161 3.646 1.965 8.195.603 10.161-3.044 8.229-15.272 24.111-24.759 41.447-24.759h1.699c23.402 0 42.871 17.173 46.474 39.58h-50.353c-4.143 0-7.5 3.358-7.5 7.5v6.14c0 10.306-8.384 18.69-18.689 18.69-4.993 0-9.692-1.946-13.227-5.473-3.53-3.53-5.474-8.224-5.474-13.217v-3.12c0-4.142-3.358-7.5-7.5-7.5s-7.5 3.358-7.5 7.5v3.12c0 9 3.504 17.46 9.873 23.829.149.149.305.289.457.434-23.769 6.059-45.326 18.307-62.966 35.947-25.965 25.965-40.264 60.481-40.264 97.191 0 1.144.267 2.24.739 3.229l-.005.002 7.833 16.424c-11.219 5.023-19.06 16.043-19.396 28.634-.242 8.841 3.017 17.195 9.174 23.523 6.156 6.326 14.406 9.81 23.231 9.81 5.252 0 10.303-1.246 14.834-3.585l11.158 23.395-7.898 17.254c-5.305-1.032-10.73-1.563-16.202-1.563-46.667 0-84.632 37.962-84.632 84.624 0 46.666 37.966 84.632 84.632 84.632 22.459 0 43.612-8.707 59.564-24.516 11.727-11.623 19.625-26.095 23.075-41.861 5.517 5.565 12.979 9.019 21.061 9.472.59.033 1.181.049 1.771.049 4.769 0 9.522-1.074 13.845-3.139 7.754-3.696 13.604-10.193 16.474-18.293 1.032-2.916 1.627-5.913 1.801-8.917l74.727-77.23 1.513 5.581c-26.893 14.769-43.948 43.238-43.948 74.222 0 46.666 37.962 84.632 84.624 84.632 46.666 0 84.632-37.966 84.632-84.632.001-46.661-37.965-84.624-84.631-84.624zm-19.427-74.361-10.447 3.616c-3.727 1.29-5.817 5.245-4.785 9.05l39.331 145.054c.338 1.247.17 2.551-.473 3.672s-1.684 1.925-2.93 2.263c-.42.114-.849.171-1.274.171-2.174 0-4.091-1.469-4.661-3.574l-42.346-156.172c-.662-2.445.693-5.009 3.087-5.837l21.334-7.385c.519-.179 1.053-.269 1.586-.269.723 0 1.44.164 2.109.489 1.162.564 2.035 1.547 2.457 2.768.874 2.521-.467 5.281-2.988 6.154zm-138.565 61.051 10.641-1.771c-.815 7.026.694 14.085 4.406 20.243 4.435 7.359 11.469 12.549 19.807 14.615 2.588.641 5.181.948 7.734.948.916 0 1.827-.041 2.731-.118l-19.529 20.188zm10.582-70.565c1.253 1.665 2.671 3.168 4.193 4.53h-46.252l-2.864-6.008c.431-.431.819-.916 1.142-1.459l18.367-30.875zm119.68-13.722-4.493 1.555-7.307-26.957c1.585-.245 3.122-.638 4.601-1.154zm-34.323 28.093-6.07 1.01 5.026-20.278c2.228-8.98.466-18.284-4.576-25.737l11.613-11.343c.083.045.168.085.251.129l9.378 34.597-2.401.831c-8.789 3.044-14.147 11.795-13.221 20.791zm29.794-79.492c0 6.235-5.072 11.307-11.308 11.307-6.234 0-11.307-5.072-11.307-11.307s5.072-11.308 11.307-11.308c6.236 0 11.308 5.073 11.308 11.308zm-46.472 45.289c1.611 3.484 2.034 7.463 1.076 11.325l-6.586 26.572-36.885 6.142 2.572-10.373c.177-.713.234-1.438.201-2.156.105-.019.21-.032.315-.052 5.749-1.086 11-3.817 15.191-7.903zm-56.689 39.362-1.825 7.361-38.509 6.412-6.566-13.774h46.9zm36.674 57.035c-2.275 9.184-11.602 14.802-20.785 12.527-4.448-1.102-8.2-3.871-10.566-7.797-2.367-3.927-3.062-8.54-1.96-12.991l.531-2.144 36.882-6.139zm20.222-19.238 13.667-2.273-17.617 18.21zm-86.184-.851-4.33-9.084 110.654-18.425 2.543 9.381zm98.76-150.505c5.756-5.613 15.005-5.504 20.62.247.71.727 1.329 1.519 1.865 2.357-.034 0-.068-.003-.103-.003-13.701 0-24.983 10.53-26.193 23.92l-11.396-11.669zm-51.766-95.26h37.855v27.103c0 19.89-16.182 36.071-36.071 36.071-18.116 0-33.151-13.427-35.689-30.85.081 0 .161.006.242.006 18.122 0 32.947-14.382 33.663-32.33zm-109.392 69.457c16.912-16.912 37.858-28.264 60.95-33.159 2.796 15.309 12.429 28.256 25.62 35.541l-9.347 15.715-17.207-22.886c-2.489-3.31-7.192-3.978-10.501-1.487-3.311 2.489-3.977 7.191-1.488 10.501l52.123 69.328c1.297 1.725 3.272 2.807 5.424 2.971.191.015.382.022.571.022 1.951 0 3.834-.761 5.24-2.134l23.834-23.276 20.367 20.854-41.804 40.831c-2.066 2.015-4.66 3.363-7.502 3.9-2.216.419-4.469.316-6.703-.309-3.004-.838-5.811-2.828-7.896-5.598l-57.667-76.726c-2.489-3.312-7.19-3.978-10.502-1.489-3.311 2.489-3.978 7.19-1.489 10.502l22.516 29.958-18.343 30.833-61.959-22.521c1.281-30.747 13.866-59.473 35.763-81.371zm-29.294 153.206c-4.741 0-9.173-1.872-12.48-5.271-3.309-3.401-5.06-7.895-4.93-12.658.183-6.863 4.592-12.855 10.861-15.494l14.919 31.281c-2.536 1.397-5.393 2.142-8.37 2.142zm36.815 106.484c.779.949 1.518 1.929 2.217 2.937l-3.827.582zm18.283.495c-2.999-5.657-6.894-10.819-11.524-15.268l4.679-10.224 11.799 24.739zm-15.263-43.144-24.045 52.545c-1.146 2.505-.827 5.437.832 7.637 1.43 1.896 3.655 2.984 5.987 2.984.374 0 .751-.028 1.127-.085l43.063-6.543 4.351 9.123-68.605 10.419c-.099.016-.315.042-.661.042-1.536 0-2.938-.694-3.858-1.92-1.071-1.419-1.278-3.303-.538-4.918l36.922-80.659zm-53.793 83.223c3.713 4.946 9.636 7.899 15.842 7.899 1.061 0 2.086-.079 2.98-.223l40.126-6.094c-5.809 18.366-23.161 31.673-43.099 31.673-24.917 0-45.188-20.271-45.188-45.188 0-24.532 19.654-44.546 44.041-45.159l-16.894 36.907c-3.038 6.633-2.194 14.373 2.192 20.185zm15.85 57.699c-38.396 0-69.632-31.237-69.632-69.632 0-38.391 31.237-69.624 69.632-69.624 3.277 0 6.531.232 9.739.681l-4.128 9.018c-1.858-.172-3.732-.263-5.611-.263-33.188 0-60.188 27-60.188 60.188s27 60.188 60.188 60.188c15.178 0 29.675-5.668 40.821-15.961 9.599-8.864 15.977-20.47 18.335-33.15l9.782-1.486c-4.706 33.823-33.932 60.041-68.938 60.041zm121.651-68.295c-1.531 4.322-4.652 7.789-8.795 9.764-2.595 1.239-5.469 1.81-8.315 1.65-6.276-.352-11.852-4.089-14.551-9.757l-91.299-191.432 46.045 16.737 76.229 159.918c1.973 4.138 2.216 8.797.686 13.12zm11.987-21.395-4.443-9.32 75.605-78.154 2.95 10.879zm120.87 89.69c-38.391 0-69.624-31.237-69.624-69.632 0-24.261 12.715-46.641 33.015-59.224l2.594 9.568c-16.277 11.156-26.172 29.681-26.172 49.657 0 33.189 27.001 60.19 60.19 60.19 13.594 0 26.426-4.429 37.108-12.809 3.259-2.556 3.829-7.271 1.272-10.53s-7.271-3.828-10.53-1.272c-8.016 6.288-17.646 9.611-27.851 9.611-24.918 0-45.19-20.272-45.19-45.19 0-13.174 5.744-25.497 15.422-33.98l10.621 39.17c2.338 8.625 10.208 14.649 19.139 14.649 1.751 0 3.499-.233 5.199-.694 10.557-2.863 16.817-13.781 13.954-24.338l-10.624-39.181c20.851 3.999 36.659 22.369 36.659 44.373 0 5.007-.816 9.938-2.428 14.657-1.339 3.92.755 8.183 4.675 9.521.803.274 1.62.404 2.424.404 3.119 0 6.032-1.962 7.097-5.079 2.145-6.282 3.232-12.844 3.232-19.503 0-31.749-24.709-57.817-55.902-60.021l-2.593-9.562c37.616.903 67.943 31.757 67.943 69.581.002 38.397-31.234 69.634-69.63 69.634z"/><path d="m40.19 282.495 27.061-1.859c12.68-.871 22.611-11.51 22.609-24.22v-2.5c-.001-12.709-9.935-23.345-22.615-24.213l-27.061-1.853c-6.683-.457-13.33 1.902-18.227 6.477-4.898 4.575-7.706 11.042-7.705 17.743l.001 6.213c0 6.701 2.811 13.167 7.709 17.74 4.496 4.197 10.461 6.529 16.58 6.529.548-.001 1.099-.02 1.648-.057zm-7.992-17.438c-1.899-1.772-2.945-4.179-2.945-6.777l-.001-6.213c0-2.598 1.045-5.005 2.943-6.779 1.738-1.623 3.957-2.497 6.308-2.497.217 0 .436.007.655.022l27.061 1.853c4.845.332 8.64 4.395 8.64 9.25v2.5c0 4.855-3.793 8.92-8.638 9.253l-27.061 1.859c-2.589.182-5.063-.698-6.962-2.471z"/><path d="m45.773 206.716c4.496 4.197 10.462 6.529 16.581 6.529.548 0 1.098-.019 1.647-.057l27.061-1.859c12.679-.872 22.61-11.511 22.609-24.22v-2.5c-.001-12.71-9.936-23.346-22.616-24.213l-27.061-1.853c-6.681-.459-13.329 1.904-18.227 6.478-4.897 4.574-7.706 11.042-7.705 17.742v6.213c.003 6.701 2.813 13.167 7.711 17.74zm10.234-30.734c1.738-1.624 3.958-2.497 6.309-2.497.217 0 .436.007.655.022l27.061 1.853c4.844.332 8.64 4.395 8.64 9.25v2.5c0 4.855-3.794 8.92-8.638 9.253l-27.061 1.859c-2.596.181-5.065-.7-6.964-2.473s-2.945-4.18-2.945-6.777v-6.213c-.001-2.596 1.044-5.003 2.943-6.777z"/><path d="m113.672 325.721v-2.5c-.001-12.709-9.936-23.346-22.616-24.214l-27.061-1.853c-6.682-.455-13.329 1.903-18.227 6.478s-7.706 11.041-7.705 17.742v6.213c.001 6.702 2.811 13.167 7.71 17.741 4.496 4.197 10.461 6.529 16.581 6.529.548 0 1.098-.019 1.647-.057l27.061-1.86c12.68-.87 22.611-11.509 22.61-24.219zm-50.698 11.115c-2.596.18-5.065-.7-6.964-2.473-1.899-1.772-2.945-4.18-2.946-6.777v-6.213c0-2.598 1.045-5.005 2.943-6.778 1.738-1.623 3.958-2.497 6.309-2.497.217 0 .436.007.655.022l27.061 1.853c4.845.332 8.64 4.395 8.641 9.251v2.5c0 4.855-3.793 8.92-8.638 9.253z"/></g></g></svg>